<svg width="34" height="34" viewBox="0 0 34 34" fill="none" xmlns="http://www.w3.org/2000/svg">
<path d="M17.241 0.465101C14.3169 0.448634 11.4429 1.22347 8.92333 2.70752C6.40379 4.19156 4.33264 6.32953 2.92931 8.8949C1.52598 11.4603 0.842759 14.3575 0.952028 17.2795C1.0613 20.2016 1.95899 23.0397 3.54999 25.4931L1.00899 31.7491C0.939738 31.9226 0.922881 32.1125 0.960501 32.2955C0.998121 32.4785 1.08857 32.6464 1.22064 32.7784C1.35272 32.9105 1.52063 33.001 1.70358 33.0386C1.88654 33.0762 2.07651 33.0593 2.24999 32.9901L8.50599 30.4491C10.6361 31.8095 13.0539 32.655 15.5676 32.9184C18.0813 33.1819 20.6218 32.8562 22.9878 31.967C25.3537 31.0779 27.4799 29.6498 29.1979 27.796C30.9159 25.9422 32.1784 23.7136 32.8854 21.287C33.5923 18.8604 33.7242 16.3025 33.2706 13.816C32.817 11.3296 31.7904 8.98299 30.2722 6.96231C28.754 4.94163 26.7859 3.30242 24.5239 2.17465C22.262 1.04688 19.7685 0.461563 17.241 0.465101V0.465101Z" fill="#464D77"/>
<path d="M17.236 13.8971C16.6693 13.8971 16.1154 14.0651 15.6443 14.3799C15.1731 14.6947 14.8059 15.1422 14.5891 15.6657C14.3722 16.1892 14.3155 16.7653 14.426 17.321C14.5366 17.8768 14.8094 18.3873 15.2101 18.788C15.6108 19.1886 16.1213 19.4615 16.677 19.5721C17.2328 19.6826 17.8089 19.6259 18.3324 19.409C18.8559 19.1922 19.3033 18.825 19.6181 18.3538C19.933 17.8827 20.101 17.3288 20.101 16.7621C20.1002 16.0025 19.7981 15.2742 19.261 14.7371C18.7238 14.2 17.9956 13.8979 17.236 13.8971V13.8971ZM9.59698 13.8971C9.03034 13.8971 8.47642 14.0651 8.00528 14.3799C7.53413 14.6947 7.16691 15.1422 6.95007 15.6657C6.73322 16.1892 6.67648 16.7653 6.78703 17.321C6.89758 17.8768 7.17044 18.3873 7.57112 18.788C7.9718 19.1886 8.48229 19.4615 9.03804 19.5721C9.5938 19.6826 10.1699 19.6259 10.6934 19.409C11.2169 19.1922 11.6643 18.825 11.9791 18.3538C12.294 17.8827 12.462 17.3288 12.462 16.7621C12.4612 16.0029 12.1594 15.2749 11.6227 14.7378C11.086 14.2008 10.3582 13.8984 9.59898 13.8971H9.59698ZM24.875 13.8971C24.3083 13.8971 23.7544 14.0651 23.2833 14.3799C22.8121 14.6947 22.4449 15.1422 22.2281 15.6657C22.0112 16.1892 21.9545 16.7653 22.065 17.321C22.1756 17.8768 22.4484 18.3873 22.8491 18.788C23.2498 19.1886 23.7603 19.4615 24.316 19.5721C24.8718 19.6826 25.4479 19.6259 25.9714 19.409C26.4949 19.1922 26.9423 18.825 27.2571 18.3538C27.572 17.8827 27.74 17.3288 27.74 16.7621C27.7392 16.0029 27.4374 15.2749 26.9007 14.7378C26.364 14.2008 25.6362 13.8984 24.877 13.8971H24.875Z" fill="white"/>
</svg>
