<svg xmlns="http://www.w3.org/2000/svg" width="448.88" height="110.312" viewBox="0 0 448.88 110.312">
  <g id="Group_1238" data-name="Group 1238" transform="translate(-25.56 -194.844)">
    <g id="Group_1232" data-name="Group 1232">
      <path id="Path_596" data-name="Path 596" d="M72.308,194.844a46.531,46.531,0,0,0-46.531,46.531c0,.173,0,.339.007.512a.491.491,0,0,0-.007.1l-.217,58.54a4.641,4.641,0,0,0,4.664,4.628h.022a4.652,4.652,0,0,0,4.685-4.6l.116-31.307a46.535,46.535,0,1,0,37.261-74.406Zm0,83.7a37.163,37.163,0,1,1,37.167-37.167A37.2,37.2,0,0,1,72.308,278.542Z"/>
    </g>
    <g id="Group_1234" data-name="Group 1234">
      <g id="Group_1233" data-name="Group 1233">
        <path id="Path_597" data-name="Path 597" d="M389.33,236.855v-.036l-7.425.029H364.533l1.269-1.305a4.687,4.687,0,0,0-6.733-6.523l-8.528,8.808a4.679,4.679,0,0,0,0,6.524l9.126,9.386a4.685,4.685,0,0,0,6.718-6.531l-.958-.988h14.655q-.1.855-.26,1.709c-.043.281-.1.562-.158.843s-.109.562-.181.836-.122.562-.194.836-.137.548-.217.822c-.079.3-.165.591-.252.887-.072.245-.151.5-.231.735-.086.274-.172.541-.266.8-.274.8-.577,1.579-.909,2.35q-.658,1.547-1.448,3.013c-.13.245-.26.49-.4.728-.274.476-.555.952-.851,1.428s-.591.93-.908,1.384c-.353.5-.714,1.009-1.1,1.5-.454.6-.93,1.182-1.42,1.752q-1.092,1.254-2.285,2.407c-.2.2-.4.382-.6.57s-.4.367-.606.548-.418.367-.634.548-.425.36-.635.526-.432.353-.648.512a37.982,37.982,0,0,1-5.616,3.6c-.238.122-.468.238-.706.353s-.49.238-.735.353c-.685.325-1.384.62-2.1.9-.281.116-.562.224-.851.325-.165.065-.331.122-.5.18-.152.058-.3.108-.462.158a36.844,36.844,0,0,1-4.094,1.118c-.281.057-.562.115-.843.166-.224.043-.454.086-.678.122-.505.087-1.009.159-1.514.224-.3.043-.591.072-.886.1-.181.021-.361.043-.541.05-.209.022-.425.043-.634.058-.31.021-.62.036-.923.05q-.887.043-1.773.043a37.383,37.383,0,1,1,0-74.766c.4,0,.8.007,1.2.021a.374.374,0,0,1,.094.008,43.778,43.778,0,0,1,14.907,3.661,3.984,3.984,0,0,0,5.039-1.881.039.039,0,0,0,.022-.036h.036l.129-.281c.022-.036.044-.072.065-.115l.072-.137c.029-.051.051-.1.08-.152a.479.479,0,0,0,.036-.086c.029-.058.057-.109.079-.166a4.257,4.257,0,0,0-1.816-5.486c-.1-.057-.2-.108-.31-.158-.246-.116-.491-.231-.743-.332-.389-.18-.778-.346-1.175-.505h-.007c-.36-.158-.721-.3-1.088-.439a.661.661,0,0,0-.123-.044c-.094-.043-.2-.079-.288-.115-.231-.086-.469-.173-.707-.252-.086-.029-.166-.065-.252-.087-.289-.108-.584-.2-.872-.295a.384.384,0,0,0-.1-.029c-.123-.043-.245-.087-.361-.123-.036-.007-.072-.021-.108-.028-.065-.022-.122-.044-.18-.058l-.3-.087a.472.472,0,0,0-.093-.028c-.346-.109-.7-.2-1.046-.3-.3-.087-.612-.166-.922-.238-.26-.072-.527-.137-.793-.194a2.17,2.17,0,0,0-.216-.051.435.435,0,0,1-.051-.014l-.216-.044c-.26-.057-.519-.108-.786-.165-.079-.022-.158-.036-.238-.051a.368.368,0,0,0-.086-.014c-.065-.008-.13-.022-.2-.036-.259-.051-.526-.094-.786-.137-.1-.022-.209-.044-.31-.058-.3-.05-.6-.094-.915-.137-.072-.014-.144-.029-.216-.036-.2-.029-.411-.058-.613-.079s-.418-.058-.634-.08h-.029c-.087-.014-.166-.021-.238-.028l-.685-.065c-.115-.015-.238-.022-.36-.036-.346-.029-.692-.051-1.038-.072l-.375-.022c-.829-.043-1.658-.065-2.494-.065a46.535,46.535,0,1,0,46.531,46.531A44.78,44.78,0,0,0,389.33,236.855Z"/>
      </g>
    </g>
    <g id="Group_1236" data-name="Group 1236">
      <g id="Group_1235" data-name="Group 1235">
        <path id="Path_598" data-name="Path 598" d="M186.742,244.8c-2.3-14.662-12.672-24.523-26.426-25.128a29.312,29.312,0,0,0-21.669,8.369l-.029-8.059a4.688,4.688,0,0,0-4.686-4.672h-.014a4.7,4.7,0,0,0-4.671,4.708l.231,63.795a4.68,4.68,0,0,0,4.685,4.664h.015a4.685,4.685,0,0,0,4.671-4.7l-.137-36.944a4.14,4.14,0,0,0,.129-.418c2.242-9.018,9.6-17.884,21.064-17.387,7.244.325,15.664,5.01,17.574,17.221a4.7,4.7,0,0,0,4.628,3.958,4.21,4.21,0,0,0,.728-.058A4.683,4.683,0,0,0,186.742,244.8Z"/>
      </g>
    </g>
    <g id="Group_1237" data-name="Group 1237">
      <path id="Path_599" data-name="Path 599" d="M233.755,286.843a36.41,36.41,0,0,1-12.542-2.233,4.686,4.686,0,0,1,3.223-8.8,27.246,27.246,0,0,0,34.91-16.2,4.685,4.685,0,1,1,8.8,3.222A36.647,36.647,0,0,1,233.755,286.843Z"/>
      <path id="Path_600" data-name="Path 600" d="M270.366,249.74h-4.945a4.145,4.145,0,0,1-.526.029H229.573a4.686,4.686,0,1,1,0-9.371h29.771a27.214,27.214,0,0,0-52.774,9.342H197.2a36.583,36.583,0,0,1,73.167,0Z"/>
    </g>
    <path id="Path_601" data-name="Path 601" d="M437.647,288.462a36.572,36.572,0,1,1,36.793-36.571A36.724,36.724,0,0,1,437.647,288.462Zm0-63.772a27.2,27.2,0,1,0,27.422,27.2A27.343,27.343,0,0,0,437.647,224.69Z"/>
  </g>
</svg>
